<svg xmlns="http://www.w3.org/2000/svg" width="1100" height="650" viewBox="0 0 1100 650">
<rect width="100%" height="100%" fill="white"/>
<text x="90" y="34" font-family="sans-serif" font-size="24" font-weight="bold">OCR reliability over retained local attempts</text>
<text x="90" y="56" font-family="sans-serif" font-size="13" fill="#555">Attempt outcome by local completion date; partial output is not full coverage</text>
<line x1="90" y1="540.0" x2="1060" y2="540.0" stroke="#ddd"/>
<text x="78" y="545.0" text-anchor="end" font-family="sans-serif" font-size="12">0</text>
<line x1="90" y1="422.5" x2="1060" y2="422.5" stroke="#ddd"/>
<text x="78" y="427.5" text-anchor="end" font-family="sans-serif" font-size="12">10</text>
<line x1="90" y1="305.0" x2="1060" y2="305.0" stroke="#ddd"/>
<text x="78" y="310.0" text-anchor="end" font-family="sans-serif" font-size="12">20</text>
<line x1="90" y1="187.5" x2="1060" y2="187.5" stroke="#ddd"/>
<text x="78" y="192.5" text-anchor="end" font-family="sans-serif" font-size="12">30</text>
<line x1="90" y1="70.0" x2="1060" y2="70.0" stroke="#ddd"/>
<text x="78" y="75.0" text-anchor="end" font-family="sans-serif" font-size="12">40</text>
<rect x="140.4" y="175.8" width="93.1" height="364.2" fill="#2e7d32"/>
<rect x="140.4" y="175.8" width="93.1" height="0.0" fill="#f9a825"/>
<rect x="140.4" y="175.8" width="93.1" height="0.0" fill="#c62828"/>
<text x="187.0" y="167.8" text-anchor="middle" font-family="sans-serif" font-size="12">n=31</text>
<text x="187.0" y="562" text-anchor="middle" font-family="sans-serif" font-size="12">07-10</text>
<text x="187.0" y="583" text-anchor="middle" font-family="sans-serif" font-size="10" fill="#555">Z.ai snapshot</text>
<rect x="334.4" y="222.8" width="93.1" height="317.2" fill="#2e7d32"/>
<rect x="334.4" y="222.8" width="93.1" height="0.0" fill="#f9a825"/>
<rect x="334.4" y="222.8" width="93.1" height="0.0" fill="#c62828"/>
<text x="381.0" y="214.8" text-anchor="middle" font-family="sans-serif" font-size="12">n=27</text>
<text x="381.0" y="562" text-anchor="middle" font-family="sans-serif" font-size="12">07-11</text>
<text x="381.0" y="583" text-anchor="middle" font-family="sans-serif" font-size="10" fill="#555"></text>
<rect x="528.4" y="164.0" width="93.1" height="376.0" fill="#2e7d32"/>
<rect x="528.4" y="105.2" width="93.1" height="58.8" fill="#f9a825"/>
<rect x="528.4" y="70.0" width="93.1" height="35.2" fill="#c62828"/>
<text x="575.0" y="62.0" text-anchor="middle" font-family="sans-serif" font-size="12">n=40</text>
<text x="575.0" y="562" text-anchor="middle" font-family="sans-serif" font-size="12">07-12</text>
<text x="575.0" y="583" text-anchor="middle" font-family="sans-serif" font-size="10" fill="#555">StepFun first interval</text>
<rect x="722.4" y="410.8" width="93.1" height="129.2" fill="#2e7d32"/>
<rect x="722.4" y="281.5" width="93.1" height="129.2" fill="#f9a825"/>
<rect x="722.4" y="281.5" width="93.1" height="0.0" fill="#c62828"/>
<text x="769.0" y="273.5" text-anchor="middle" font-family="sans-serif" font-size="12">n=22</text>
<text x="769.0" y="562" text-anchor="middle" font-family="sans-serif" font-size="12">07-13</text>
<text x="769.0" y="583" text-anchor="middle" font-family="sans-serif" font-size="10" fill="#555">Z.ai→StepFun</text>
<rect x="916.4" y="352.0" width="93.1" height="188.0" fill="#2e7d32"/>
<rect x="916.4" y="246.2" width="93.1" height="105.8" fill="#f9a825"/>
<rect x="916.4" y="246.2" width="93.1" height="0.0" fill="#c62828"/>
<text x="963.0" y="238.2" text-anchor="middle" font-family="sans-serif" font-size="12">n=25</text>
<text x="963.0" y="562" text-anchor="middle" font-family="sans-serif" font-size="12">07-14</text>
<text x="963.0" y="583" text-anchor="middle" font-family="sans-serif" font-size="10" fill="#555">Pro→Max→Z.ai</text>
<line x1="90" y1="540" x2="1060" y2="540" stroke="#333"/>
<rect x="180" y="615" width="16" height="16" fill="#2e7d32"/>
<text x="203" y="628" font-family="sans-serif" font-size="13">Success</text>
<rect x="360" y="615" width="16" height="16" fill="#f9a825"/>
<text x="383" y="628" font-family="sans-serif" font-size="13">Partial/subtask failure</text>
<rect x="600" y="615" width="16" height="16" fill="#c62828"/>
<text x="623" y="628" font-family="sans-serif" font-size="13">Hard failure</text>
</svg>